# xmcd CD database file
#
# Track frame offsets:
#	150
#	12577
#	23039
#	32446
#	57767
#	70116
#	84536
#	100165
#	110021
#	146444
#
# Disc length: 2073 seconds
#
# Revision: 0
# Processed by: cddbd v1.5.2PL0 Copyright (c) Steve Scherf et al.
# Submitted via: CDex 1.51
#
DISCID=7a08170a
DTITLE=Fast Heart Mart - An Orange Album
DYEAR=2006
DGENRE=Blues
TTITLE0=Trustafarian
TTITLE1=Hate Job
TTITLE2=Reinvent
TTITLE3=Acid Reflux (in the redwoods)
TTITLE4=God Dog
TTITLE5=Relative Happiness
TTITLE6=I Don't Care
TTITLE7=Anthill
TTITLE8=Ode To The Hovel
TTITLE9=Hate Job Video
EXTD=YEAR: 2006
EXTT0=
EXTT1=
EXTT2=
EXTT3=
EXTT4=
EXTT5=
EXTT6=
EXTT7=
EXTT8=
EXTT9=
PLAYORDER=
